HIERARCHY
ROOT RootJoint
{
    OFFSET   0.000000   0.000000   0.000000
    CHANNELS 6 Xposition Yposition Zposition Xrotation Yrotation Zrotation
    JOINT pelvis_lowerback
    {
        OFFSET   0.000000   0.093605   0.000000
        CHANNELS 3 Xrotation Yrotation Zrotation
        JOINT lowerback_torso
        {
            OFFSET   0.000000   0.100000   0.000000
            CHANNELS 3 Xrotation Yrotation Zrotation
            JOINT torso_head
            {
                OFFSET   0.000000   0.282350   0.000000
                CHANNELS 3 Xrotation Yrotation Zrotation
                End Site
                {
                    OFFSET   0.000000   0.192650   0.000000
                }
            }
            JOINT rTorso_Clavicle
            {
                OFFSET  -0.001000   0.157500   0.000000
                CHANNELS 3 Xrotation Yrotation Zrotation
                JOINT rShoulder
                {
                    OFFSET  -0.117647   0.000000   0.000000
                    CHANNELS 3 Xrotation Yrotation Zrotation
                    JOINT rElbow
                    {
                        OFFSET  -0.245000   0.000000   0.000000
                        CHANNELS 3 Xrotation Yrotation Zrotation
                        JOINT rWrist
                        {
                            OFFSET  -0.240000   0.000000   0.000000
                            CHANNELS 3 Xrotation Yrotation Zrotation
                            End Site
                            {
                                OFFSET  -0.116353  -0.002500   0.000000
                            }
                        }
                    }
                }
            }
            JOINT lTorso_Clavicle
            {
                OFFSET   0.001000   0.157500   0.000000
                CHANNELS 3 Xrotation Yrotation Zrotation
                JOINT lShoulder
                {
                    OFFSET   0.117647   0.000000   0.000000
                    CHANNELS 3 Xrotation Yrotation Zrotation
                    JOINT lElbow
                    {
                        OFFSET   0.245000   0.000000   0.000000
                        CHANNELS 3 Xrotation Yrotation Zrotation
                        JOINT lWrist
                        {
                            OFFSET   0.240000   0.000000   0.000000
                            CHANNELS 3 Xrotation Yrotation Zrotation
                            End Site
                            {
                                OFFSET   0.116353  -0.002500   0.000000
                            }
                        }
                    }
                }
            }
        }
    }
    JOINT rHip
    {
        OFFSET  -0.100000  -0.051395   0.000000
        CHANNELS 3 Xrotation Yrotation Zrotation
        JOINT rKnee
        {
            OFFSET   0.000000  -0.410000   0.000000
            CHANNELS 3 Xrotation Yrotation Zrotation
            JOINT rAnkle
            {
                OFFSET   0.000000  -0.390000   0.000000
                CHANNELS 3 Xrotation Yrotation Zrotation
                JOINT rToeJoint
                {
                    OFFSET   0.000000  -0.050000   0.130000
                    CHANNELS 3 Xrotation Yrotation Zrotation
                    End Site
                    {
                        OFFSET  -0.010000   0.002000   0.060000
                    }
                }
            }
        }
    }
    JOINT lHip
    {
        OFFSET   0.100000  -0.051395   0.000000
        CHANNELS 3 Xrotation Yrotation Zrotation
        JOINT lKnee
        {
            OFFSET   0.000000  -0.410000   0.000000
            CHANNELS 3 Xrotation Yrotation Zrotation
            JOINT lAnkle
            {
                OFFSET   0.000000  -0.390000   0.000000
                CHANNELS 3 Xrotation Yrotation Zrotation
                JOINT lToeJoint
                {
                    OFFSET   0.000000  -0.050000   0.130000
                    CHANNELS 3 Xrotation Yrotation Zrotation
                    End Site
                    {
                        OFFSET   0.010000   0.002000   0.060000
                    }
                }
            }
        }
    }
}
MOTION
Frames: 17
Frame Time:   0.016667
 -5.480003   0.797645  -2.446344  30.384778  41.060585 -22.344924   0.377414  -3.529128   2.187020  17.085556  -4.751908   8.353970 -25.913007  22.636361  -3.900510  -0.403321   6.606600  12.158835  20.926921   6.402133  45.356652   0.014832  80.724948  -0.017437  10.152497   3.223076 -16.698754  -1.428504  -5.680340 -10.398783  -5.066575 -17.214666 -40.671643 179.994490 -62.369140 -179.993070  10.815670  -8.467647   5.995536 -65.357132 -12.036153   5.416182  52.089163   0.047537  -0.011929 -17.584471  -4.072303   2.767746   0.680609   0.013111  -0.006096   1.391072  -3.318755  -1.458493  40.095863  -0.011817   0.002219   2.212412  -7.496021  -0.448691  -1.525659   0.006325  -0.021586
 -5.452728   0.792698  -2.418654  29.212542  41.637293 -20.878044   0.308835  -2.980252   2.172745  17.617341  -4.194760   8.641641 -25.848039  21.804626  -4.519244  -0.421087   6.175117  13.220772  17.085403   7.223566  44.676603   0.034504  79.219201  -0.037606  10.125348   2.880040 -15.724554  -1.600530  -6.040001 -11.545114  -2.341287 -16.731506 -41.076881 179.990748 -65.253908 -179.985986  10.697816  -9.004134   4.963964 -62.680328 -12.267506   5.851742  55.754072   0.019436  -0.011731 -21.005278  -4.348552  -0.560088   2.031594   0.020348  -0.007757  -0.868632  -3.031620  -1.638333  47.541151  -0.014819   0.019825   4.982644  -7.578844  -1.272591  -3.298477  -0.003260  -0.019715
 -5.425453   0.787752  -2.390964  28.010343  42.191061 -19.382505   0.240425  -2.431360   2.159134  18.145961  -3.634981   8.923925 -25.793062  20.972293  -5.133458  -0.430799   5.743381  14.281740  13.246382   8.088380  44.052321   0.049306  77.713453  -0.052905  10.104049   2.536593 -14.750793  -1.779879  -6.396163 -12.693308   0.380824 -16.267310 -41.504602 179.987499 -68.138676 -179.978528  10.570007  -9.538435   3.929701 -59.999531 -12.478705   6.298262  59.418981  -0.008595  -0.009738 -24.437197  -4.425898  -3.899302   3.382579   0.027544  -0.009589  -3.126845  -2.737630  -1.806653  54.986440  -0.015513   0.037672   7.752054  -7.701041  -2.091687  -5.071294  -0.012898  -0.018140
 -5.401838   0.779844  -2.360906  26.027940  42.391642 -18.489699   0.673120  -1.664631   2.820558  18.170140  -3.074101   8.486808 -25.635014  21.505843  -5.356076  -0.496408   5.742358  15.733450   9.489470   9.489219  42.879860   0.035932  77.788987  -0.038957  10.341841   2.373582 -14.377015  -1.436735  -6.012466 -12.714844   1.560986 -15.690961 -42.757644 179.928760 -72.406422 179.971752  10.485442  -9.601918   3.462987 -56.536234 -12.888363   7.310730  62.287608  -0.010019  -0.007825 -28.091874  -4.164781  -4.753407   2.408958   0.017228  -0.007917  -6.897400  -1.442197   0.400312  62.500494  -0.002813   0.071866   7.238505  -7.009286  -1.754673  -4.642644  -0.009680  -0.010734
 -5.378222   0.771937  -2.330848  24.035536  42.569199 -17.585307   1.096805  -0.892984   3.475975  18.198590  -2.513422   8.049663 -25.474143  22.038814  -5.581111  -0.561970   5.739682  17.185153   5.745465  10.962847  41.798092   0.022388  77.864520  -0.024839  10.580666   2.212125 -14.002605  -1.093680  -5.628905 -12.738674   2.750723 -15.139649 -44.019322 179.835677 -76.674142 179.887585  10.400340  -9.664720   2.996090 -53.060723 -13.237494   8.348322  65.156235  -0.011345  -0.005842 -31.740961  -3.849944  -5.588794   1.435337   0.006884  -0.006421 -10.713773  -0.295530   2.686943  70.014540   0.014249   0.104105   6.721593  -6.320564  -1.411908  -4.213994  -0.006407  -0.003351
 -5.354607   0.764029  -2.300790  22.034247  42.723406 -16.670647   1.511585  -0.116563   4.125590  18.231309  -1.952976   7.612406 -25.310391  22.571191  -5.808625  -0.627443   5.735354  18.636843   2.010082  12.502769  40.811268   0.008671  77.940053  -0.010549  10.820516   2.052232 -13.627564  -0.750684  -5.245492 -12.764795   3.949750 -14.613809 -45.289410 179.659620 -80.941801 179.720366  10.314705  -9.726836   2.529013 -49.574691 -13.524614   9.407140  68.024862  -0.012571  -0.003796 -35.383675  -3.482752  -6.402096   0.461717  -0.003483  -0.005101 -14.573058   0.695519   5.044947  77.528576   0.035381   0.133836   6.201200  -5.634952  -1.063344  -3.785344  -0.003079   0.004006
 -5.332185   0.763373  -2.273583  21.996438  42.635257 -15.782893   1.863119   0.597663   3.435371  17.391527  -0.878699   7.318059 -25.643252  20.798577  -6.469512  -1.210041   5.877215  18.539499  -1.281983  13.114225  41.191322  -0.016106  80.441044   0.010702  11.349834   2.802429 -13.456826  -0.689254  -4.239165 -13.517655   6.539168 -12.852971 -45.160682 179.675984 -81.888765 179.725520  10.280517  -9.219734   2.388030 -46.472161 -12.958596   8.989873  67.954007  -0.009331  -0.002045 -38.696311  -2.460811  -5.712855   0.935235  -0.002565  -0.002975 -21.611962   0.746143   5.370958  83.470257   0.038201   0.113192   4.557435  -3.906990  -0.371383  -3.739823  -0.002342   0.003159
 -5.309763   0.762718  -2.246376  21.960541  42.546689 -14.896477   2.223306   1.307588   2.740639  16.557367   0.199762   7.039520 -25.994010  19.029659  -7.133921  -1.792547   6.020054  18.443585  -4.586382  13.703347  41.607839  -0.057139  82.942033   0.048223  11.877296   3.554167 -13.292914  -0.614657  -3.233729 -14.270732   9.107711 -11.088290 -45.113974 179.695180 -82.835728 179.733519  10.247638  -8.712550   2.247551 -43.372250 -12.415382   8.542756  67.883153  -0.006093  -0.000291 -42.019002  -1.480416  -4.966113   1.408754  -0.001630  -0.000856 -28.651089   0.756438   5.700718  89.411939   0.038869   0.092367   2.895541  -2.199634   0.368783  -3.694303  -0.001606   0.002311
 -5.287341   0.762062  -2.219169  21.926557  42.457723 -14.011393   2.592209   2.013080   2.041207  15.728258   1.282152   6.776646 -26.362693  17.264697  -7.802972  -2.374967   6.163855  18.349111  -7.903408  14.268088  42.059743  -0.141205  85.443015   0.128786  12.403075   4.307378 -13.135801  -0.526905  -2.229359 -15.024488  11.660588  -9.323330 -45.147700 179.718507 -83.782691 179.745660  10.216060  -8.205288   2.107550 -40.274288 -11.896542   8.067164  67.812298  -0.002858   0.001468 -45.353195  -0.545003  -4.164025   1.882272  -0.000677   0.001255 -35.690142   0.726248   6.029254  95.353621   0.037378   0.071584   1.212902  -0.514572   1.157627  -3.648782  -0.000871   0.001462
 -5.261777   0.772555  -2.187090  21.953912  42.279117 -13.151613   2.712432   3.528019   1.728901  14.733941   1.408481   5.346242 -25.458857  15.026147  -7.279861  -2.332496   6.761672  17.194276  -9.797274  14.500639  43.276426 151.952408  89.983048 -151.974851  12.766845   5.261634 -13.523968  -0.338296  -1.148781 -14.293729  15.227486  -8.115728 -43.972648 179.862346 -82.137521 179.880982   9.301254  -8.149932   2.372079 -34.878421 -11.064138   7.714211  62.937693  -0.003633   0.013278 -45.791936   0.351844  -3.603456   1.728406  -0.000537   0.000892 -42.284309   1.600468   5.553552  95.549937   0.028433   0.054103  -1.079118   0.765607   1.563396  -2.470177   0.001423   0.005064
 -5.236213   0.783049  -2.155012  21.984800  42.100833 -12.294143   2.841180   5.042276   1.412785  13.743026   1.559565   3.918156 -24.542797  12.795857  -6.725642  -2.277830   7.358515  16.037502 -11.697649  14.694046  44.501566 179.650697  85.413024 -179.683164  13.137718   6.213392 -13.918870  -0.163520  -0.065893 -13.566677  18.758581  -6.838547 -42.878855 179.957947 -80.492320 179.968050   8.386322  -8.098764   2.637432 -29.491892 -10.267915   7.284212  58.063088  -0.005408   0.024980 -46.239528   1.244329  -3.035912   1.574541  -0.000397   0.000529 -48.874738   2.523508   5.181214  95.746251   0.019429   0.036652  -3.381389   2.028494   2.020285  -1.291573   0.003791   0.008618
 -5.210649   0.793542  -2.122933  22.019183  41.922912 -11.438941   2.978680   6.555797   1.092396  12.756104   1.735267   2.492780 -23.612171  10.574525  -6.139666  -2.210933   7.954141  14.878535 -13.603387  14.847973  45.733645 179.695023  80.841054 -179.737546  13.515915   7.162560 -14.320742  -0.002473   1.019121 -12.842817  22.255857  -5.497295 -41.868839 -179.973336 -78.847102 -179.971787   7.471271  -8.051797   2.903544 -24.112162  -9.514845   6.781334  53.188483  -0.008172   0.036488 -46.696149   2.132308  -2.461150   1.420675  -0.000255   0.000167 -55.464728   3.483153   4.917146  95.942562   0.010365   0.019232  -5.696001   3.271960   2.528078  -0.112968   0.006231   0.012122
 -5.181168   0.805270  -2.084859  21.162397  42.779562 -10.945232   2.365003   6.864782   0.887896  12.423032   2.728979   2.023527 -22.453439   8.194960  -5.859197  -1.893553   8.238111  13.882639 -12.966180  15.291709  45.602151 179.726999  78.905382 -179.766211  13.350113   7.135123 -14.527816   0.602337   1.391695 -12.427191  24.267839  -5.389865 -41.501605 -179.965120 -77.533014 -179.968476   6.770239  -8.205758   3.056200 -18.319506  -9.829733   6.933922  49.360436  -0.010762   0.031906 -41.072908   2.392079  -1.739365  -2.249380   0.000846   0.001366 -58.122334   4.299203   3.806640  89.875345  -0.020315   0.025036  -5.477303   3.429067   2.258850   0.634718   0.009709   0.008859
 -5.151687   0.816998  -2.046784  20.283370  43.630588 -10.426923   1.752032   7.175924   0.686607  12.097800   3.725368   1.559611 -21.288912   5.821492  -5.531856  -1.571002   8.516571  12.884447 -12.326548  15.734003  45.465256 179.749995  76.969708 -179.785885  13.184222   7.108280 -14.734956   1.204536   1.768624 -12.015447  26.278716  -5.269669 -41.138452 -179.957993 -76.218926 -179.966267   6.069348  -8.361556   3.207001 -12.520561 -10.127822   7.118158  45.532388  -0.013040   0.027162 -35.452089   2.721255  -1.046371  -5.919435   0.001868   0.002634 -60.766801   5.165625   2.733966  83.808130  -0.051437   0.027564  -5.257832   3.585145   1.988977   1.382404   0.013144   0.005551
 -5.122206   0.828726  -2.008710  19.380912  44.475639  -9.882904   1.139737   7.489184   0.488545  11.780254   4.724340   1.100780 -20.114726   3.455148  -5.157368  -1.243354   8.789423  11.883954 -11.684406  16.174794  45.322927 179.767499  75.034032 -179.800054  13.018244   7.082033 -14.942162   1.804146   2.149850 -11.607597  28.288384  -5.136864 -40.779831 -179.951668 -74.904838 -179.964874   5.368589  -8.519167   3.355925  -6.715385 -10.406041   7.332240  41.704340  -0.014996   0.022276 -29.833844   3.116642  -0.388774  -9.589490   0.002807   0.003964 -63.398553   6.080333   1.700991  77.740912  -0.082651   0.026789  -5.037588   3.740188   1.718461   2.130090   0.016535   0.002198
 -5.092039   0.837450  -1.970249  18.279648  45.368155  -9.307935   0.887469   7.190010   0.325130  11.656491   5.924794   0.694686 -18.865532   1.056101  -4.922616  -1.057926   7.948015  11.467362 -10.126363  18.421153  45.343346 179.820112  74.835332 -179.845002  13.313575   7.327641 -13.936808   1.737369   2.110643 -11.693894  29.046300  -5.658506 -41.256889 -179.971435 -75.865492 -179.976309   5.348535  -8.292902   3.820525  -2.579830 -10.802739   7.531429  39.607043  -0.014010   0.018580 -23.330347   3.615814   1.275948  -4.123674  -0.024434   0.005235 -61.950903   5.862460  -0.207447  69.812497  -0.081847   0.034866  -5.057904   2.995327   0.985220   1.688587   0.010458   0.003506
 -5.061872   0.846174  -1.931787  17.147782  46.252570  -8.699023   0.634505   6.891553   0.160495  11.541008   7.126090   0.290230 -17.606392  -1.337238  -4.635596  -0.879027   7.105301  11.054324  -8.547336  20.667205  45.298783 179.871472  74.636622 -179.888694  13.604680   7.578351 -12.932175   1.670535   2.071537 -11.780235  29.800541  -6.186369 -41.727418 -179.993455 -76.826144 -179.990016   5.326641  -8.066805   4.284942   1.562566 -11.184272   7.759523  37.509746  -0.012890   0.014924 -16.839435   4.299836   2.874452   1.342144  -0.051430   0.009095 -60.511958   5.596844  -2.108939  61.884082  -0.082165   0.042977  -5.087746   2.250786   0.252152   1.247085   0.004371   0.004768
